<svg width="28" height="16" viewBox="0 0 28 16" fill="none" xmlns="http://www.w3.org/2000/svg">
<path d="M2.00033 2.66667H26.0003C26.3539 2.66667 26.6931 2.52619 26.9431 2.27614C27.1932 2.02609 27.3337 1.68696 27.3337 1.33333C27.3337 0.979711 27.1932 0.640573 26.9431 0.390525C26.6931 0.140476 26.3539 0 26.0003 0H2.00033C1.6467 0 1.30756 0.140476 1.05752 0.390525C0.807468 0.640573 0.666992 0.979711 0.666992 1.33333C0.666992 1.68696 0.807468 2.02609 1.05752 2.27614C1.30756 2.52619 1.6467 2.66667 2.00033 2.66667ZM26.0003 13.3333H2.00033C1.6467 13.3333 1.30756 13.4738 1.05752 13.7239C0.807468 13.9739 0.666992 14.313 0.666992 14.6667C0.666992 15.0203 0.807468 15.3594 1.05752 15.6095C1.30756 15.8595 1.6467 16 2.00033 16H26.0003C26.3539 16 26.6931 15.8595 26.9431 15.6095C27.1932 15.3594 27.3337 15.0203 27.3337 14.6667C27.3337 14.313 27.1932 13.9739 26.9431 13.7239C26.6931 13.4738 26.3539 13.3333 26.0003 13.3333ZM26.0003 6.66667H2.00033C1.6467 6.66667 1.30756 6.80714 1.05752 7.05719C0.807468 7.30724 0.666992 7.64638 0.666992 8C0.666992 8.35362 0.807468 8.69276 1.05752 8.94281C1.30756 9.19286 1.6467 9.33333 2.00033 9.33333H26.0003C26.3539 9.33333 26.6931 9.19286 26.9431 8.94281C27.1932 8.69276 27.3337 8.35362 27.3337 8C27.3337 7.64638 27.1932 7.30724 26.9431 7.05719C26.6931 6.80714 26.3539 6.66667 26.0003 6.66667Z" fill="white"/>
</svg>
