<svg width="34" height="34" viewBox="0 0 34 34" fill="none" xmlns="http://www.w3.org/2000/svg">
<path d="M33.6667 15.3335C33.6714 14.1587 33.3656 13.0036 32.7802 11.9851C32.1948 10.9666 31.3508 10.1208 30.3334 9.53347C30.3585 9.24512 30.3585 8.95514 30.3334 8.6668C30.3334 7.34072 29.8066 6.06895 28.8689 5.13127C27.9312 4.19358 26.6595 3.6668 25.3334 3.6668H25.0334C24.7558 2.89732 24.2937 2.20769 23.6876 1.65838C23.0815 1.10907 22.3499 0.716856 21.5569 0.516139C20.7639 0.315422 19.9337 0.31233 19.1393 0.507133C18.3448 0.701937 17.6103 1.08869 17.0001 1.63347C16.3899 1.08869 15.6553 0.701937 14.8608 0.507133C14.0664 0.31233 13.2362 0.315422 12.4433 0.516139C11.6503 0.716856 10.9186 1.10907 10.3125 1.65838C9.70636 2.20769 9.24427 2.89732 8.96672 3.6668H8.66672C7.34064 3.6668 6.06887 4.19358 5.13119 5.13127C4.19351 6.06895 3.66672 7.34072 3.66672 8.6668C3.64164 8.95514 3.64164 9.24512 3.66672 9.53347C2.72082 10.0681 1.91994 10.8259 1.33379 11.7408C0.747638 12.6556 0.393986 13.6999 0.303617 14.7827C0.213248 15.8655 0.388902 16.9539 0.815289 17.9533C1.24168 18.9527 1.90587 19.8327 2.75006 20.5168C2.20384 21.5356 1.93191 22.6789 1.96096 23.8345C1.99001 24.9901 2.31904 26.1183 2.91576 27.1083C3.51247 28.0983 4.35637 28.9162 5.36461 29.4816C6.37284 30.0471 7.51078 30.3406 8.66672 30.3335H8.96672C9.24427 31.1029 9.70636 31.7926 10.3125 32.3419C10.9186 32.8912 11.6503 33.2834 12.4433 33.4841C13.2362 33.6848 14.0664 33.6879 14.8608 33.4931C15.6553 33.2983 16.3899 32.9116 17.0001 32.3668C17.6103 32.9116 18.3448 33.2983 19.1393 33.4931C19.9337 33.6879 20.7639 33.6848 21.5569 33.4841C22.3499 33.2834 23.0815 32.8912 23.6876 32.3419C24.2937 31.7926 24.7558 31.1029 25.0334 30.3335H25.3334C26.4823 30.3262 27.6098 30.0222 28.6065 29.4508C29.6033 28.8795 30.4355 28.0602 31.0224 27.0725C31.6093 26.0849 31.931 24.9623 31.9563 23.8136C31.9816 22.665 31.7096 21.5294 31.1667 20.5168C31.9441 19.8944 32.5722 19.1057 33.0048 18.2088C33.4374 17.3118 33.6636 16.3293 33.6667 15.3335ZM15.3334 11.2501C14.9704 11.0425 14.5914 10.8642 14.2001 10.7168C13.7801 10.5753 13.3212 10.6065 12.9243 10.8034C12.5273 11.0003 12.2248 11.3469 12.0834 11.7668C11.9419 12.1867 11.9731 12.6456 12.17 13.0426C12.3669 13.4395 12.7135 13.742 13.1334 13.8835C13.775 14.1154 14.3299 14.5386 14.7233 15.096C15.1168 15.6533 15.3297 16.3179 15.3334 17.0001V19.5835C14.9704 19.3758 14.5914 19.1975 14.2001 19.0501C13.7801 18.9087 13.3212 18.9398 12.9243 19.1368C12.5273 19.3337 12.2248 19.6802 12.0834 20.1001C11.9419 20.5201 11.9731 20.979 12.17 21.3759C12.3669 21.7729 12.7135 22.0753 13.1334 22.2168C13.775 22.4487 14.3299 22.8719 14.7233 23.4293C15.1168 23.9866 15.3297 24.6513 15.3334 25.3335V28.6668C15.3334 29.1088 15.1578 29.5328 14.8452 29.8453C14.5327 30.1579 14.1088 30.3335 13.6667 30.3335C13.3443 30.3314 13.0294 30.2358 12.7602 30.0583C12.491 29.8808 12.279 29.629 12.1501 29.3335C12.4295 29.1695 12.6969 28.9857 12.9501 28.7835C13.1186 28.6434 13.2579 28.4715 13.36 28.2776C13.4621 28.0837 13.525 27.8716 13.5451 27.6533C13.5652 27.4351 13.5422 27.2151 13.4772 27.0058C13.4123 26.7965 13.3068 26.602 13.1667 26.4335C13.0266 26.2649 12.8547 26.1256 12.6608 26.0236C12.4669 25.9215 12.2548 25.8585 12.0366 25.8384C11.8184 25.8183 11.5983 25.8414 11.389 25.9063C11.1797 25.9712 10.9853 26.0767 10.8167 26.2168C10.2149 26.7234 9.45337 27.0009 8.66672 27.0001C7.78267 27.0001 6.93482 26.6489 6.3097 26.0238C5.68458 25.3987 5.33339 24.5509 5.33339 23.6668C5.34136 23.0395 5.52623 22.4271 5.86672 21.9001C6.24076 21.9672 6.62005 22.0007 7.00006 22.0001C7.44208 22.0001 7.86601 21.8245 8.17857 21.512C8.49113 21.1994 8.66672 20.7755 8.66672 20.3335C8.66672 19.8914 8.49113 19.4675 8.17857 19.155C7.86601 18.8424 7.44208 18.6668 7.00006 18.6668C6.60637 18.6691 6.21593 18.5955 5.85006 18.4501C5.25063 18.2339 4.72573 17.8505 4.33754 17.3451C3.94935 16.8398 3.71414 16.2338 3.65977 15.5989C3.6054 14.964 3.73415 14.3268 4.03077 13.7629C4.32739 13.1989 4.77945 12.7318 5.33339 12.4168C5.57022 12.6347 5.82689 12.83 6.10006 13.0001C6.48462 13.2211 6.94123 13.2803 7.36944 13.1647C7.79765 13.049 8.16237 12.768 8.38339 12.3835C8.6044 11.9989 8.6636 11.5423 8.54795 11.1141C8.4323 10.6859 8.15129 10.3211 7.76672 10.1001C7.5321 9.9707 7.33643 9.78079 7.20006 9.55013C7.04597 9.28254 6.97626 8.97466 7.00006 8.6668C7.00006 8.22477 7.17565 7.80085 7.48821 7.48829C7.80077 7.17573 8.22469 7.00013 8.66672 7.00013C8.78283 6.98394 8.90062 6.98394 9.01672 7.00013C9.10495 7.26792 9.21074 7.52959 9.33339 7.78347C9.44227 7.97444 9.58786 8.142 9.76177 8.27647C9.93569 8.41094 10.1345 8.50968 10.3467 8.567C10.559 8.62432 10.7804 8.63909 10.9984 8.61045C11.2164 8.58181 11.4265 8.51033 11.6167 8.40013C11.9862 8.17781 12.2552 7.82092 12.3671 7.40446C12.479 6.98799 12.4251 6.54436 12.2167 6.1668C12.0769 5.91114 12.0024 5.62486 12.0001 5.33347C12.0001 4.89144 12.1757 4.46752 12.4882 4.15495C12.8008 3.84239 13.2247 3.6668 13.6667 3.6668C14.1088 3.6668 14.5327 3.84239 14.8452 4.15495C15.1578 4.46752 15.3334 4.89144 15.3334 5.33347V11.2501ZM28.1501 18.4501C27.7842 18.5955 27.3937 18.6691 27.0001 18.6668C26.558 18.6668 26.1341 18.8424 25.8215 19.155C25.509 19.4675 25.3334 19.8914 25.3334 20.3335C25.3334 20.7755 25.509 21.1994 25.8215 21.512C26.1341 21.8245 26.558 22.0001 27.0001 22.0001C27.3801 22.0007 27.7594 21.9672 28.1334 21.9001C28.4739 22.4271 28.6587 23.0395 28.6667 23.6668C28.6667 24.5509 28.3155 25.3987 27.6904 26.0238C27.0653 26.6489 26.2174 27.0001 25.3334 27.0001C24.5467 27.0009 23.7852 26.7234 23.1834 26.2168C22.843 25.9339 22.4042 25.7978 21.9635 25.8384C21.5228 25.8791 21.1163 26.0931 20.8334 26.4335C20.5505 26.7738 20.4144 27.2126 20.455 27.6533C20.4957 28.0941 20.7097 28.5006 21.0501 28.7835C21.3032 28.9857 21.5706 29.1695 21.8501 29.3335C21.7211 29.629 21.5091 29.8808 21.2399 30.0583C20.9707 30.2358 20.6558 30.3314 20.3334 30.3335C19.8914 30.3335 19.4674 30.1579 19.1549 29.8453C18.8423 29.5328 18.6667 29.1088 18.6667 28.6668V25.3335C18.6704 24.6513 18.8834 23.9866 19.2768 23.4293C19.6702 22.8719 20.2252 22.4487 20.8667 22.2168C21.2866 22.0753 21.6332 21.7729 21.8301 21.3759C22.027 20.979 22.0582 20.5201 21.9167 20.1001C21.7753 19.6802 21.4728 19.3337 21.0759 19.1368C20.6789 18.9398 20.22 18.9087 19.8001 19.0501C19.4087 19.1975 19.0297 19.3758 18.6667 19.5835V17.0001C18.6704 16.3179 18.8834 15.6533 19.2768 15.096C19.6702 14.5386 20.2252 14.1154 20.8667 13.8835C21.2866 13.742 21.6332 13.4395 21.8301 13.0426C22.027 12.6456 22.0582 12.1867 21.9167 11.7668C21.7753 11.3469 21.4728 11.0003 21.0759 10.8034C20.6789 10.6065 20.22 10.5753 19.8001 10.7168C19.4087 10.8642 19.0297 11.0425 18.6667 11.2501V5.33347C18.6667 4.89144 18.8423 4.46752 19.1549 4.15495C19.4674 3.84239 19.8914 3.6668 20.3334 3.6668C20.7754 3.6668 21.1993 3.84239 21.5119 4.15495C21.8245 4.46752 22.0001 4.89144 22.0001 5.33347C21.9977 5.62486 21.9232 5.91114 21.7834 6.1668C21.6725 6.35603 21.6001 6.56528 21.5702 6.78257C21.5403 6.99985 21.5537 7.22089 21.6094 7.43302C21.6651 7.64514 21.7622 7.84418 21.895 8.01871C22.0278 8.19325 22.1938 8.33986 22.3834 8.45013C22.5736 8.56033 22.7838 8.63181 23.0017 8.66045C23.2197 8.68909 23.4412 8.67432 23.6534 8.617C23.8656 8.55968 24.0644 8.46094 24.2383 8.32647C24.4123 8.192 24.5578 8.02444 24.6667 7.83347C24.7915 7.56336 24.8973 7.28492 24.9834 7.00013C25.0995 6.98394 25.2173 6.98394 25.3334 7.00013C25.7754 7.00013 26.1993 7.17573 26.5119 7.48829C26.8245 7.80085 27.0001 8.22477 27.0001 8.6668C26.9975 8.99352 26.899 9.31229 26.7167 9.58347C26.5804 9.79974 26.3911 9.97759 26.1667 10.1001C25.7822 10.3211 25.5011 10.6859 25.3855 11.1141C25.2698 11.5423 25.329 11.9989 25.5501 12.3835C25.7711 12.768 26.1358 13.049 26.564 13.1647C26.9922 13.2803 27.4488 13.2211 27.8334 13.0001C28.1326 12.8383 28.4122 12.6426 28.6667 12.4168C29.2226 12.7262 29.6782 13.1882 29.98 13.7482C30.2817 14.3082 30.4169 14.9429 30.3696 15.5773C30.3223 16.2116 30.0945 16.8192 29.713 17.3283C29.3315 17.8373 28.8123 18.2266 28.2167 18.4501H28.1501Z" fill="#385499"/>
</svg>
