<svg width="26" height="27" viewBox="0 0 26 27" fill="none" xmlns="http://www.w3.org/2000/svg">
<path fill-rule="evenodd" clip-rule="evenodd" d="M13.0001 25.8889C19.873 25.8889 25.4446 20.3173 25.4446 13.4444C25.4446 6.57157 19.873 1 13.0001 1C6.12723 1 0.555664 6.57157 0.555664 13.4444C0.555664 20.3173 6.12723 25.8889 13.0001 25.8889Z" stroke="white"/>
<path d="M14.1326 10.2593H15.2763C15.3815 10.2593 15.4669 10.1788 15.4669 10.0796V9.00189C15.4669 8.90274 15.3815 8.82227 15.2763 8.82227H14.1326C12.9766 8.82227 12.0357 9.70854 12.0357 10.7981V12.0555H10.7014C10.5961 12.0555 10.5107 12.136 10.5107 12.2351V13.3129C10.5107 13.412 10.5961 13.4925 10.7014 13.4925H12.0357V17.2646C12.0357 17.3638 12.1211 17.4443 12.2263 17.4443H13.3701C13.4753 17.4443 13.5607 17.3638 13.5607 17.2646V13.4925H14.8951C14.977 13.4925 15.0498 13.4429 15.0762 13.3697L15.4574 12.2919C15.4768 12.2373 15.4669 12.1769 15.4311 12.1299C15.3949 12.0832 15.3377 12.0555 15.2763 12.0555H13.5607V10.7981C13.5607 10.501 13.8173 10.2593 14.1326 10.2593Z" fill="white"/>
</svg>
