<svg width="140" height="114" viewBox="0 0 140 114" fill="none" xmlns="http://www.w3.org/2000/svg">
<g filter="url(#filter0_d_816_3270)">
<rect x="25" y="21" width="90" height="64" rx="8" fill="white"/>
</g>
<path d="M81.636 43.6763V68.5356C81.636 69.4953 80.8625 70.27 79.9016 70.27H59.0891C58.1294 70.27 57.3547 69.4953 57.3547 68.5356V38.4731C57.3547 37.5123 58.1294 36.7388 59.0891 36.7388H74.6985L81.636 43.6763Z" stroke="black" stroke-linecap="round" stroke-linejoin="round"/>
<path d="M56.7812 62.7544V68.5356C56.7812 69.8168 57.8126 70.8481 59.0938 70.8481H79.9062C81.1874 70.8481 82.2188 69.8168 82.2188 68.5356V62.7544H56.7812ZM61.93 63.9037C61.9493 63.9027 61.9686 63.9027 61.9878 63.9037C62.0017 63.9032 62.0156 63.9032 62.0295 63.9037H64.3015C64.4548 63.9037 64.6019 63.9646 64.7103 64.073C64.8187 64.1815 64.8796 64.3285 64.8796 64.4818C64.8796 64.6352 64.8187 64.7822 64.7103 64.8906C64.6019 64.999 64.4548 65.06 64.3015 65.06H61.989C61.6583 65.06 61.4109 65.3074 61.4109 65.6381C61.4109 65.9688 61.6583 66.2162 61.989 66.2162C62.0025 66.2157 62.016 66.2157 62.0295 66.2162H63.1452C63.1868 66.2156 63.2283 66.2195 63.269 66.2278C63.7047 66.2603 64.1123 66.4555 64.4107 66.7747C64.7091 67.0939 64.8765 67.5136 64.8796 67.9506C64.8796 68.8606 64.1593 69.6075 63.2643 69.6711C63.2252 69.6798 63.1853 69.6845 63.1452 69.685H60.8327C60.6794 69.685 60.5324 69.624 60.424 69.5156C60.3155 69.4072 60.2546 69.2602 60.2546 69.1068C60.2546 68.9535 60.3155 68.8065 60.424 68.698C60.5324 68.5896 60.6794 68.5287 60.8327 68.5287H63.1452C63.4759 68.5287 63.7234 68.2813 63.7234 67.9506C63.7234 67.6199 63.4759 67.3725 63.1452 67.3725H61.989C61.9525 67.372 61.9161 67.3682 61.8803 67.3609C61.4418 67.3323 61.0304 67.1387 60.7288 66.8191C60.4272 66.4995 60.2578 66.0775 60.2546 65.6381C60.2546 64.7316 60.968 63.987 61.8583 63.9176C61.8819 63.9115 61.9059 63.9068 61.93 63.9037ZM68.9253 63.9037C70.5163 63.9037 71.816 65.2045 71.816 66.7943C71.816 67.3817 71.6379 67.9286 71.3338 68.3865L71.6414 68.6941C71.6966 68.7474 71.7406 68.8112 71.7709 68.8817C71.8012 68.9522 71.8172 69.0281 71.8178 69.1049C71.8185 69.1816 71.8039 69.2578 71.7748 69.3288C71.7458 69.3999 71.7028 69.4644 71.6485 69.5187C71.5943 69.573 71.5297 69.6159 71.4587 69.645C71.3876 69.674 71.3115 69.6887 71.2347 69.688C71.158 69.6873 71.0821 69.6714 71.0116 69.6411C70.941 69.6108 70.8772 69.5667 70.8239 69.5115L70.514 69.2016C70.0441 69.5159 69.4918 69.684 68.9265 69.685C68.1606 69.6825 67.4268 69.3772 66.8852 68.8356C66.3436 68.294 66.0383 67.5602 66.0359 66.7943C66.0359 65.2045 67.3367 63.9037 68.9265 63.9037H68.9253ZM73.5422 63.9037C73.6197 63.9025 73.6967 63.9168 73.7685 63.9459C73.8403 63.9749 73.9056 64.0182 73.9604 64.073C74.0152 64.1278 74.0584 64.193 74.0875 64.2648C74.1165 64.3367 74.1309 64.4136 74.1296 64.4911V68.531H75.8594C76.0127 68.531 76.1598 68.5919 76.2682 68.7003C76.3766 68.8088 76.4375 68.9558 76.4375 69.1091C76.4375 69.2625 76.3766 69.4095 76.2682 69.5179C76.1598 69.6264 76.0127 69.6873 75.8594 69.6873H73.5607C73.4947 69.688 73.429 69.6775 73.3665 69.6561C73.3556 69.6525 73.3448 69.6487 73.3341 69.6445C73.3036 69.6316 73.2742 69.6161 73.2463 69.5982C73.2324 69.5899 73.2189 69.5811 73.2058 69.5716C73.2011 69.5679 73.1965 69.564 73.1919 69.5601C73.1788 69.5502 73.166 69.5398 73.1537 69.5289C73.1514 69.525 73.1491 69.5212 73.1468 69.5173C73.1425 69.5124 73.1382 69.5074 73.1341 69.5023C73.1107 69.4783 73.0894 69.4524 73.0705 69.4248C73.0624 69.4135 73.0547 69.402 73.0474 69.3901C73.0356 69.3688 73.0252 69.3468 73.0162 69.3242C73.0102 69.3105 73.0048 69.2967 73 69.2826C72.9984 69.2776 72.9968 69.2726 72.9953 69.2675C72.9903 69.2504 72.9861 69.233 72.9826 69.2155C72.9725 69.1641 72.9694 69.1116 72.9734 69.0594V64.4911C72.9722 64.4152 72.9859 64.3397 73.0138 64.2691C73.0418 64.1985 73.0833 64.1341 73.1361 64.0796C73.189 64.025 73.252 63.9814 73.3217 63.9512C73.3914 63.9211 73.4663 63.9049 73.5422 63.9037ZM68.9265 65.0553C67.9622 65.0553 67.1921 65.8254 67.1921 66.7897C67.1903 67.0828 67.2633 67.3714 67.404 67.6285C67.5447 67.8856 67.7486 68.1026 67.9964 68.259C68.2443 68.4154 68.5278 68.5061 68.8204 68.5226C69.1131 68.539 69.405 68.4806 69.6688 68.353C69.5883 68.2717 69.5336 68.1684 69.5118 68.0561C69.4901 67.9437 69.5021 67.8275 69.5464 67.722C69.5907 67.6165 69.6653 67.5266 69.7608 67.4635C69.8563 67.4005 69.9683 67.3672 70.0827 67.3678C70.2347 67.3691 70.3801 67.4301 70.4874 67.5378C70.6154 67.2739 70.674 66.9817 70.6579 66.6889C70.6418 66.396 70.5514 66.1121 70.3953 65.8638C70.2391 65.6155 70.0224 65.411 69.7654 65.2696C69.5085 65.1281 69.2198 65.0544 68.9265 65.0553Z" fill="black"/>
<path d="M81.636 43.6763H76.4329C75.4732 43.6763 74.6985 42.9016 74.6985 41.9419V36.7388" fill="black"/>
<path d="M81.636 43.6763H76.4329C75.4732 43.6763 74.6985 42.9016 74.6985 41.9419V36.7388" stroke="black" stroke-linecap="round" stroke-linejoin="round"/>
<path d="M63.1406 45.4062V47.1406H61.4062V48.2969H63.1406V50.0312H64.2969V48.2969H66.0312V47.1406H64.2969V45.4062H63.1406ZM66.6094 48.875C66.1272 48.875 65.7133 49.0981 65.4057 49.4068C65.0982 49.7132 64.875 50.1284 64.875 50.6094V51.7656C64.875 52.2247 65.0797 52.6201 65.3652 52.9219C65.0797 53.2248 64.875 53.6191 64.875 54.0781V55.2344C64.875 55.6934 65.0797 56.0888 65.3652 56.3906C65.0797 56.6936 64.875 57.0878 64.875 57.5469V58.7031C64.875 59.1853 65.0982 59.5991 65.4057 59.9067C65.7133 60.2142 66.1272 60.4386 66.6094 60.4386H72.3906C72.8728 60.4386 73.2867 60.2142 73.5943 59.9067C73.9018 59.5991 74.125 59.1853 74.125 58.7043V57.548C74.125 57.0878 73.9203 56.6924 73.6348 56.3918C73.9203 56.0888 74.125 55.6934 74.125 55.2355V54.0793C74.125 53.6191 73.9203 53.2236 73.6348 52.923C73.9203 52.6201 74.125 52.2246 74.125 51.7668V50.6105C74.125 50.1283 73.9018 49.7133 73.5943 49.4057C73.2867 49.0981 72.8728 48.875 72.3906 48.875H66.6094ZM66.6094 50.0312H72.3906C72.4866 50.0312 72.6508 50.097 72.7768 50.2231C72.9028 50.3503 72.9688 50.5122 72.9688 50.6094V51.7656C72.9522 51.9129 72.8842 52.0496 72.7768 52.1518C72.6747 52.2593 72.538 52.3273 72.3906 52.3438H66.6094C66.462 52.3273 66.3253 52.2593 66.2232 52.1518C66.1157 52.0497 66.0477 51.913 66.0312 51.7656V50.6094C66.0312 50.5134 66.0972 50.3491 66.2232 50.2231C66.3253 50.1156 66.462 50.0477 66.6094 50.0312ZM66.6094 53.5H72.3906C72.4866 53.5 72.6508 53.5658 72.7768 53.6918C72.9028 53.819 72.9688 53.981 72.9688 54.0781V55.2344C72.9522 55.3817 72.8842 55.5184 72.7768 55.6205C72.6747 55.728 72.538 55.796 72.3906 55.8125H66.6094C66.462 55.796 66.3253 55.728 66.2232 55.6205C66.1157 55.5185 66.0477 55.3817 66.0312 55.2344V54.0781C66.0312 53.9822 66.0972 53.8178 66.2232 53.6918C66.3253 53.5843 66.462 53.5165 66.6094 53.5ZM66.6094 56.9688H72.3906C72.4866 56.9688 72.6508 57.0345 72.7768 57.1606C72.9028 57.2878 72.9688 57.4497 72.9688 57.5469V58.7031C72.9522 58.8504 72.8842 58.9871 72.7768 59.0893C72.6747 59.1968 72.538 59.2648 72.3906 59.2812H66.6094C66.462 59.2648 66.3253 59.1968 66.2232 59.0893C66.1157 58.9872 66.0477 58.8505 66.0312 58.7031V57.5469C66.0312 57.4509 66.0972 57.2866 66.2232 57.1606C66.3253 57.0531 66.462 56.9852 66.6094 56.9688Z" fill="black"/>
<defs>
<filter id="filter0_d_816_3270" x="0" y="0" width="140" height="114" filterUnits="userSpaceOnUse" color-interpolation-filters="sRGB">
<feFlood flood-opacity="0" result="BackgroundImageFix"/>
<feColorMatrix in="SourceAlpha" type="matrix" values="0 0 0 0 0 0 0 0 0 0 0 0 0 0 0 0 0 0 127 0" result="hardAlpha"/>
<feMorphology radius="10" operator="dilate" in="SourceAlpha" result="effect1_dropShadow_816_3270"/>
<feOffset dy="4"/>
<feGaussianBlur stdDeviation="7.5"/>
<feComposite in2="hardAlpha" operator="out"/>
<feColorMatrix type="matrix" values="0 0 0 0 0 0 0 0 0 0 0 0 0 0 0 0 0 0 0.04 0"/>
<feBlend mode="normal" in2="BackgroundImageFix" result="effect1_dropShadow_816_3270"/>
<feBlend mode="normal" in="SourceGraphic" in2="effect1_dropShadow_816_3270" result="shape"/>
</filter>
</defs>
</svg>
