<svg width="27" height="27" viewBox="0 0 27 27" fill="none" xmlns="http://www.w3.org/2000/svg">
<path fill-rule="evenodd" clip-rule="evenodd" d="M13.4444 25.8889C20.3173 25.8889 25.8889 20.3173 25.8889 13.4444C25.8889 6.57157 20.3173 1 13.4444 1C6.57157 1 1 6.57157 1 13.4444C1 20.3173 6.57157 25.8889 13.4444 25.8889Z" stroke="white"/>
<path d="M18.0837 8.3335H9.91699C9.45286 8.3335 9.00774 8.51787 8.67956 8.84606C8.35137 9.17425 8.16699 9.61937 8.16699 10.0835V15.9168C8.16699 16.381 8.35137 16.8261 8.67956 17.1543C9.00774 17.4825 9.45286 17.6668 9.91699 17.6668H18.0837C18.5478 17.6668 18.9929 17.4825 19.3211 17.1543C19.6493 16.8261 19.8337 16.381 19.8337 15.9168V10.0835C19.8337 9.61937 19.6493 9.17425 19.3211 8.84606C18.9929 8.51787 18.5478 8.3335 18.0837 8.3335V8.3335ZM17.8445 9.50016L14.4145 12.9302C14.3603 12.9848 14.2957 13.0282 14.2247 13.0578C14.1536 13.0875 14.0773 13.1027 14.0003 13.1027C13.9233 13.1027 13.8471 13.0875 13.776 13.0578C13.7049 13.0282 13.6404 12.9848 13.5862 12.9302L10.1562 9.50016H17.8445ZM18.667 15.9168C18.667 16.0715 18.6055 16.2199 18.4961 16.3293C18.3867 16.4387 18.2384 16.5002 18.0837 16.5002H9.91699C9.76228 16.5002 9.61391 16.4387 9.50451 16.3293C9.39512 16.2199 9.33366 16.0715 9.33366 15.9168V10.3227L12.7637 13.7527C13.0918 14.0804 13.5366 14.2645 14.0003 14.2645C14.4641 14.2645 14.9089 14.0804 15.237 13.7527L18.667 10.3227V15.9168Z" fill="white"/>
</svg>
