<svg width="27" height="27" viewBox="0 0 27 27" fill="none" xmlns="http://www.w3.org/2000/svg">
<path fill-rule="evenodd" clip-rule="evenodd" d="M13.4444 25.8889C20.3173 25.8889 25.8889 20.3173 25.8889 13.4444C25.8889 6.57157 20.3173 1 13.4444 1C6.57157 1 1 6.57157 1 13.4444C1 20.3173 6.57157 25.8889 13.4444 25.8889Z" stroke="white"/>
<path d="M13.8 7C12.5269 7 11.3061 7.50571 10.4059 8.40588C9.50571 9.30605 9 10.5269 9 11.8C9 15.04 13.23 18.7 13.41 18.856C13.5187 18.9489 13.657 19 13.8 19C13.943 19 14.0813 18.9489 14.19 18.856C14.4 18.7 18.6 15.04 18.6 11.8C18.6 10.5269 18.0943 9.30605 17.1941 8.40588C16.2939 7.50571 15.073 7 13.8 7ZM13.8 17.59C12.522 16.39 10.2 13.804 10.2 11.8C10.2 10.8452 10.5793 9.92954 11.2544 9.25441C11.9295 8.57928 12.8452 8.2 13.8 8.2C14.7548 8.2 15.6704 8.57928 16.3456 9.25441C17.0207 9.92954 17.4 10.8452 17.4 11.8C17.4 13.804 15.078 16.396 13.8 17.59ZM13.8 9.39999C13.3253 9.39999 12.8613 9.54075 12.4666 9.80446C12.0719 10.0682 11.7643 10.443 11.5827 10.8815C11.401 11.3201 11.3535 11.8026 11.4461 12.2682C11.5387 12.7338 11.7673 13.1614 12.1029 13.497C12.4386 13.8327 12.8662 14.0613 13.3318 14.1539C13.7973 14.2465 14.2799 14.1989 14.7184 14.0173C15.157 13.8356 15.5318 13.528 15.7955 13.1333C16.0592 12.7387 16.2 12.2747 16.2 11.8C16.2 11.1635 15.9471 10.553 15.497 10.1029C15.0469 9.65285 14.4365 9.39999 13.8 9.39999ZM13.8 13C13.5626 13 13.3306 12.9296 13.1333 12.7977C12.936 12.6659 12.7822 12.4785 12.6913 12.2592C12.6005 12.0399 12.5767 11.7987 12.623 11.5659C12.6693 11.3331 12.7836 11.1193 12.9515 10.9515C13.1193 10.7836 13.3331 10.6693 13.5659 10.623C13.7987 10.5767 14.0399 10.6005 14.2592 10.6913C14.4785 10.7822 14.6659 10.936 14.7977 11.1333C14.9296 11.3306 15 11.5626 15 11.8C15 12.1182 14.8736 12.4235 14.6485 12.6485C14.4235 12.8736 14.1182 13 13.8 13Z" fill="white"/>
</svg>
