<svg width="140" height="114" viewBox="0 0 140 114" fill="none" xmlns="http://www.w3.org/2000/svg">
<g filter="url(#filter0_d_816_3264)">
<rect x="25" y="21" width="90" height="64" rx="8" fill="white"/>
</g>
<path d="M69.9998 50.6373C71.6851 50.6373 73.0514 49.2711 73.0514 47.5857C73.0514 45.9004 71.6851 44.5342 69.9998 44.5342C68.3145 44.5342 66.9482 45.9004 66.9482 47.5857C66.9482 49.2711 68.3145 50.6373 69.9998 50.6373Z" fill="#61DAFB"/>
<path d="M69.9999 58.8077C72.3952 61.1374 74.7577 62.5155 76.6608 62.5155C77.2843 62.5155 77.8749 62.3843 78.3671 62.089C80.0733 61.1046 80.6968 58.6437 80.1062 55.1327C80.0077 54.5093 79.8765 53.8858 79.7124 53.2296C80.3687 53.0327 80.9593 52.8358 81.5499 52.639C84.864 51.3593 86.7015 49.5874 86.7015 47.6515C86.7015 45.6827 84.864 43.9108 81.5499 42.664C80.9593 42.4343 80.3687 42.2374 79.7124 42.0733C79.8765 41.4171 80.0077 40.7937 80.1062 40.1702C80.664 36.5937 80.0405 34.0999 78.3343 33.1155C77.8421 32.8202 77.2515 32.689 76.628 32.689C74.7577 32.689 72.3624 34.0671 69.9671 36.3968C67.6046 34.0671 65.2421 32.689 63.339 32.689C62.7155 32.689 62.1249 32.8202 61.6327 33.1155C59.9265 34.0999 59.303 36.5608 59.8937 40.0718C59.9921 40.6952 60.1233 41.3187 60.2874 41.9749C59.6312 42.1718 59.0405 42.3687 58.4499 42.5655C55.1358 43.8452 53.2983 45.6171 53.2983 47.553C53.2983 49.5218 55.1358 51.2937 58.4499 52.5405C59.0405 52.7702 59.6312 52.9671 60.2874 53.1312C60.1233 53.7874 59.9921 54.4108 59.8937 55.0343C59.3358 58.5452 59.9593 61.039 61.6327 61.9905C62.1249 62.2858 62.7155 62.4171 63.339 62.4171C65.2421 62.4827 67.6046 61.1046 69.9999 58.8077ZM68.1624 54.378C68.753 54.4108 69.3765 54.4108 69.9999 54.4108C70.6233 54.4108 71.2468 54.4108 71.8374 54.378C71.2468 55.1655 70.6233 55.8874 69.9999 56.5765C69.3765 55.8874 68.753 55.1655 68.1624 54.378ZM64.0937 50.9983C64.4218 51.5562 64.7171 52.0812 65.078 52.6062C64.0608 52.4749 63.1093 52.3108 62.1905 52.114C62.4858 51.228 62.814 50.3093 63.2077 49.3905C63.4702 49.9155 63.7655 50.4733 64.0937 50.9983ZM62.1905 43.0905C63.1093 42.8937 64.0608 42.7296 65.078 42.5983C64.7499 43.1233 64.4218 43.6483 64.0937 44.2062C63.7655 44.764 63.4702 45.289 63.2077 45.8468C62.7812 44.8952 62.453 43.9765 62.1905 43.0905ZM63.9952 47.5858C64.4218 46.6999 64.8812 45.814 65.4062 44.928C65.8983 44.0749 66.4562 43.2218 67.014 42.3687C67.9983 42.303 68.9827 42.2702 69.9999 42.2702C71.0499 42.2702 72.0343 42.303 72.9858 42.3687C73.5765 43.2218 74.1015 44.0749 74.5937 44.928C75.1187 45.814 75.578 46.6999 76.0046 47.5858C75.578 48.4718 75.1187 49.3577 74.5937 50.2437C74.1015 51.0968 73.5437 51.9499 72.9858 52.803C72.0015 52.8687 71.0171 52.9015 69.9999 52.9015C68.9499 52.9015 67.9655 52.8687 67.014 52.803C66.4233 51.9499 65.8983 51.0968 65.4062 50.2437C64.8812 49.3577 64.4218 48.4718 63.9952 47.5858ZM76.8249 45.814L75.939 44.1733C75.6108 43.6155 75.3155 43.0905 74.9546 42.5655C75.9718 42.6968 76.9233 42.8608 77.8421 43.0577C77.5468 43.9765 77.2187 44.8952 76.8249 45.814ZM76.8249 49.3577C77.2187 50.2765 77.5468 51.1952 77.8421 52.0812C76.9233 52.278 75.9718 52.4421 74.9546 52.5733C75.2827 52.0483 75.6108 51.5233 75.939 50.9655C76.2343 50.4733 76.5296 49.9155 76.8249 49.3577ZM77.5796 60.7437C77.3171 60.9077 76.989 60.9733 76.628 60.9733C75.0202 60.9733 73.0187 59.6608 71.0499 57.6921C72.0015 56.6749 72.9202 55.5265 73.839 54.2468C75.3812 54.1155 76.8577 53.8858 78.2358 53.5577C78.3999 54.1483 78.4983 54.739 78.5968 55.3296C79.0562 58.1187 78.6952 60.1202 77.5796 60.7437ZM79.2858 43.4515C82.9608 44.5015 85.1593 46.1093 85.1593 47.5858C85.1593 48.8655 83.6499 50.1452 80.9921 51.1624C80.4671 51.3593 79.8765 51.5562 79.2858 51.7202C78.8593 50.3749 78.3343 48.9968 77.678 47.5858C78.3343 46.1749 78.8921 44.7968 79.2858 43.4515ZM76.6608 34.1983C77.0218 34.1983 77.3171 34.264 77.6124 34.428C78.6952 35.0515 79.089 37.0202 78.6296 39.8421C78.5312 40.3999 78.3999 40.9905 78.2687 41.614C76.8905 41.3187 75.414 41.089 73.8718 40.9249C72.9858 39.6452 72.0343 38.4968 71.0827 37.4796C73.0515 35.5437 75.053 34.1983 76.6608 34.1983ZM71.8374 40.7937C71.2468 40.7608 70.6233 40.7608 69.9999 40.7608C69.3765 40.7608 68.753 40.7608 68.1624 40.7937C68.753 40.0062 69.3765 39.2843 69.9999 38.5952C70.6233 39.2843 71.2468 40.039 71.8374 40.7937ZM62.4202 34.428C62.6827 34.264 63.0108 34.1983 63.3718 34.1983C64.9796 34.1983 66.9812 35.5108 68.9499 37.4796C67.9983 38.4968 67.0796 39.6452 66.1608 40.9249C64.6187 41.0562 63.1421 41.2858 61.764 41.614C61.5999 41.0233 61.5015 40.4327 61.403 39.8421C60.9437 37.053 61.3046 35.0843 62.4202 34.428ZM60.714 51.7202C57.039 50.6702 54.8405 49.0624 54.8405 47.5858C54.8405 46.3062 56.3499 45.0265 59.0077 44.0093C59.5327 43.8124 60.1233 43.6155 60.714 43.4515C61.1405 44.7968 61.6655 46.1749 62.3218 47.5858C61.6655 48.9968 61.1077 50.4077 60.714 51.7202ZM61.403 55.3296C61.5015 54.7718 61.6327 54.1812 61.764 53.5577C63.1421 53.853 64.6187 54.0827 66.1608 54.2468C67.0468 55.5265 67.9983 56.6749 68.9499 57.6921C66.9812 59.628 64.9796 60.9733 63.3718 60.9733C63.0108 60.9733 62.7155 60.9077 62.4202 60.7437C61.3046 60.1202 60.9437 58.1187 61.403 55.3296ZM60.0249 68.8483C60.7468 67.9624 60.7796 66.978 60.3858 65.9936C59.9921 65.0093 59.1718 64.5499 58.1546 64.5171C56.9405 64.4843 55.6937 64.5171 54.4796 64.5171H54.2499V73.0155H55.2343V69.7999H56.7765C56.9733 69.7999 57.1374 69.8655 57.2358 70.0296L59.2046 73.0812C59.2374 73.1468 59.3358 73.2452 59.4015 73.2452H60.6812C59.8937 72.0311 59.139 70.8827 58.3515 69.7015C59.0405 69.603 59.6312 69.3733 60.0249 68.8483ZM55.2343 68.7827V65.5343H55.5952C56.3499 65.5343 57.1374 65.5015 57.8921 65.5671C58.778 65.5999 59.4015 66.289 59.4015 67.1749C59.4015 68.0608 58.6796 68.7499 57.7937 68.7827C57.0062 68.8155 56.2187 68.7827 55.2343 68.7827ZM67.9327 69.2093C67.4077 66.9124 65.3077 66.3218 63.6999 67.0437C62.453 67.6015 61.8952 68.6843 61.8624 70.0296C61.8296 71.0468 62.1249 71.9655 62.9124 72.6546C63.7983 73.4421 64.8812 73.5405 65.9968 73.3437C66.6202 73.2124 67.178 72.9171 67.6046 72.4577C67.4405 72.228 67.2765 71.9983 67.1124 71.8015C66.1937 72.589 65.1765 72.8515 64.0608 72.3265C63.339 71.9655 62.978 71.0796 62.9124 70.4233H67.9983V69.9968C68.0312 69.7015 67.9983 69.439 67.9327 69.2093ZM62.978 69.7343C62.8796 68.7499 63.864 67.6999 64.9468 67.6999C66.1937 67.6671 66.9812 68.4218 67.014 69.7343H62.978ZM73.0515 66.8796C72.5593 66.7812 72.0343 66.7483 71.5421 66.7812C70.7546 66.8468 70.0655 67.2077 69.5077 67.7983C69.6718 68.028 69.803 68.2577 69.9999 68.5202C70.0655 68.4546 70.1312 68.389 70.1968 68.3562C70.7218 67.864 71.3452 67.6015 72.0999 67.6671C72.6905 67.6999 73.2483 67.8968 73.4124 68.4874C73.5437 68.9468 73.5108 69.439 73.5437 69.9311C73.4452 69.9311 73.4124 69.8983 73.3796 69.8655C72.5921 69.2093 71.7062 69.078 70.7546 69.3077C69.8687 69.5374 69.3108 70.2265 69.2452 71.1124C69.1796 72.1296 69.639 72.8843 70.5249 73.2452C71.0827 73.4749 71.7062 73.4749 72.2968 73.3437C72.7562 73.2452 72.953 72.9827 73.6093 72.6218V73.0483H74.528C74.528 71.7358 74.5608 70.128 74.528 68.6186C74.528 67.6671 73.9702 67.0765 73.0515 66.8796ZM73.5108 71.014C73.478 71.1124 73.5108 71.2108 73.5108 71.3093C73.5108 71.9983 73.3468 72.228 72.6905 72.4905C72.2312 72.6546 71.739 72.7202 71.2468 72.5561C70.689 72.3921 70.2952 71.8999 70.2952 71.3421C70.2624 70.7843 70.6233 70.2265 71.1812 70.0624C71.9358 69.7999 72.6249 69.964 73.2483 70.4233C73.4452 70.5874 73.5765 70.7515 73.5108 71.014ZM78.6296 67.7655C79.4827 67.503 80.2702 67.6671 80.8608 68.389L80.9593 68.4546C81.189 68.2577 81.3858 68.0608 81.6483 67.8312C81.5499 67.7327 81.5171 67.6671 81.4515 67.5686C80.4999 66.5515 78.6296 66.4202 77.4812 67.2405C75.8733 68.4218 75.9062 70.7186 76.6937 71.9327C77.4483 73.0812 78.5312 73.4749 79.8108 73.3108C80.5655 73.2124 81.189 72.8515 81.6812 72.228C81.4515 72.0311 81.2218 71.8343 80.9921 71.6046C80.9265 71.6702 80.8937 71.703 80.8608 71.7687C79.9749 72.753 78.4983 72.6546 77.7108 71.6046C77.2515 70.9811 77.153 70.2593 77.2843 69.5374C77.3499 68.7171 77.7765 68.0608 78.6296 67.7655ZM85.4546 72.228C85.389 72.2608 85.3562 72.2937 85.3562 72.2937C85.0937 72.4905 84.8312 72.5233 84.5358 72.4249C84.2405 72.2936 84.2077 72.0311 84.1749 71.7687V68.028C84.1749 67.9624 84.1749 68.0937 84.2077 67.7655H85.4546V66.7812H84.1421V65.1405H83.1577V66.9124H82.3046C82.239 66.9124 82.1405 66.978 82.1405 67.0437C82.1077 67.2733 82.1405 67.4374 82.1405 67.7655H83.1905V71.9655C83.1905 72.4905 83.3218 72.9499 83.7812 73.2124C84.2733 73.5077 85.2249 73.4421 85.6515 73.0812C85.7171 73.0483 85.7499 72.9171 85.7499 72.8843C85.6515 72.6874 85.553 72.4577 85.4546 72.228Z" fill="#61DAFB"/>
<defs>
<filter id="filter0_d_816_3264" x="0" y="0" width="140" height="114" filterUnits="userSpaceOnUse" color-interpolation-filters="sRGB">
<feFlood flood-opacity="0" result="BackgroundImageFix"/>
<feColorMatrix in="SourceAlpha" type="matrix" values="0 0 0 0 0 0 0 0 0 0 0 0 0 0 0 0 0 0 127 0" result="hardAlpha"/>
<feMorphology radius="10" operator="dilate" in="SourceAlpha" result="effect1_dropShadow_816_3264"/>
<feOffset dy="4"/>
<feGaussianBlur stdDeviation="7.5"/>
<feComposite in2="hardAlpha" operator="out"/>
<feColorMatrix type="matrix" values="0 0 0 0 0 0 0 0 0 0 0 0 0 0 0 0 0 0 0.04 0"/>
<feBlend mode="normal" in2="BackgroundImageFix" result="effect1_dropShadow_816_3264"/>
<feBlend mode="normal" in="SourceGraphic" in2="effect1_dropShadow_816_3264" result="shape"/>
</filter>
</defs>
</svg>
