<svg width="27" height="27" viewBox="0 0 27 27" fill="none" xmlns="http://www.w3.org/2000/svg">
<path fill-rule="evenodd" clip-rule="evenodd" d="M13.4444 25.8889C20.3173 25.8889 25.8889 20.3173 25.8889 13.4444C25.8889 6.57157 20.3173 1 13.4444 1C6.57157 1 1 6.57157 1 13.4444C1 20.3173 6.57157 25.8889 13.4444 25.8889Z" stroke="white"/>
<path d="M17.5126 13.6191C17.3802 13.6191 17.2417 13.5768 17.1092 13.5466C16.8409 13.4873 16.5773 13.4086 16.3204 13.3111C16.041 13.2092 15.7339 13.2145 15.4583 13.326C15.1826 13.4375 14.9577 13.6473 14.827 13.915L14.6945 14.1868C14.108 13.8596 13.5691 13.4532 13.0928 12.979C12.6199 12.5013 12.2147 11.9608 11.8885 11.3725L12.1414 11.2034C12.4083 11.0723 12.6175 10.8469 12.7287 10.5704C12.8399 10.2939 12.8451 9.9859 12.7435 9.70573C12.6479 9.44751 12.5695 9.18322 12.5087 8.9146C12.4786 8.78174 12.4545 8.64284 12.4364 8.50394C12.3633 8.07856 12.1411 7.69333 11.8099 7.41764C11.4788 7.14195 11.0603 6.99392 10.6299 7.00019H8.82345C8.56393 6.99775 8.30694 7.05141 8.06997 7.15753C7.83299 7.26365 7.6216 7.41973 7.45017 7.61515C7.27875 7.81057 7.15132 8.04073 7.07657 8.28998C7.00181 8.53923 6.98148 8.80171 7.01696 9.05954C7.33776 11.5896 8.48987 13.9403 10.2913 15.7404C12.0927 17.5406 14.4408 18.6875 16.9647 19H17.1935C17.6375 19.0007 18.0663 18.8373 18.3978 18.541C18.5883 18.3701 18.7405 18.1607 18.8443 17.9264C18.9481 17.6922 19.0012 17.4385 19 17.1822V15.3705C18.9926 14.951 18.8403 14.5471 18.569 14.2277C18.2978 13.9083 17.9244 13.6932 17.5126 13.6191ZM17.8137 17.2426C17.8136 17.3284 17.7953 17.4131 17.76 17.4912C17.7247 17.5693 17.6732 17.6389 17.609 17.6955C17.5419 17.7541 17.4632 17.7979 17.3782 17.8239C17.2931 17.8499 17.2035 17.8576 17.1152 17.8465C14.8601 17.5565 12.7653 16.5218 11.1615 14.9056C9.5576 13.2894 8.53586 11.1837 8.25741 8.92064C8.24783 8.83218 8.25623 8.74269 8.2821 8.65757C8.30798 8.57246 8.35079 8.49349 8.40796 8.42543C8.46438 8.36101 8.53384 8.30939 8.61171 8.27398C8.68958 8.23858 8.77408 8.22021 8.85958 8.2201H10.6661C10.8061 8.21698 10.9428 8.26291 11.0527 8.34999C11.1626 8.43707 11.2388 8.55985 11.2682 8.69719C11.2923 8.86227 11.3224 9.02532 11.3585 9.18637C11.4281 9.50472 11.5207 9.81757 11.6355 10.1224L10.7925 10.515C10.7204 10.5481 10.6556 10.5953 10.6017 10.6536C10.5479 10.712 10.506 10.7805 10.4786 10.8551C10.4512 10.9297 10.4387 11.0091 10.442 11.0885C10.4452 11.168 10.4641 11.246 10.4975 11.3182C11.3641 13.1799 12.8563 14.6764 14.7126 15.5456C14.8592 15.606 15.0236 15.606 15.1702 15.5456C15.2453 15.5187 15.3143 15.477 15.3733 15.4231C15.4322 15.3692 15.4798 15.3041 15.5135 15.2316L15.8868 14.3861C16.1981 14.4977 16.5158 14.5905 16.8382 14.6639C16.9988 14.7001 17.1614 14.7303 17.326 14.7545C17.4629 14.7839 17.5853 14.8604 17.6722 14.9706C17.759 15.0808 17.8048 15.2179 17.8017 15.3584L17.8137 17.2426Z" fill="white"/>
</svg>
