<svg width="27" height="27" viewBox="0 0 27 27" fill="none" xmlns="http://www.w3.org/2000/svg">
<path fill-rule="evenodd" clip-rule="evenodd" d="M13.4444 25.8889C20.3173 25.8889 25.8889 20.3173 25.8889 13.4444C25.8889 6.57157 20.3173 1 13.4444 1C6.57157 1 1 6.57157 1 13.4444C1 20.3173 6.57157 25.8889 13.4444 25.8889Z" stroke="white"/>
<path d="M10.5882 10.9322C11.1708 10.9322 11.6431 10.4599 11.6431 9.87723C11.6431 9.29459 11.1708 8.82227 10.5882 8.82227C10.0055 8.82227 9.5332 9.29459 9.5332 9.87723C9.5332 10.4599 10.0055 10.9322 10.5882 10.9322Z" fill="white"/>
<path d="M11.4673 11.6367H9.70903C9.61197 11.6367 9.5332 11.7155 9.5332 11.8125V17.0874C9.5332 17.1844 9.61197 17.2632 9.70903 17.2632H11.4673C11.5644 17.2632 11.6431 17.1844 11.6431 17.0874V11.8125C11.6431 11.7155 11.5644 11.6367 11.4673 11.6367Z" fill="white"/>
<path d="M16.7071 11.3438C15.9557 11.0863 15.0157 11.3125 14.452 11.7179C14.4326 11.6423 14.3637 11.5861 14.2818 11.5861H12.5235C12.4264 11.5861 12.3477 11.6648 12.3477 11.7619V17.0367C12.3477 17.1338 12.4264 17.2125 12.5235 17.2125H14.2818C14.3788 17.2125 14.4576 17.1338 14.4576 17.0367V13.2459C14.7417 13.0011 15.1078 12.923 15.4074 13.0503C15.6979 13.1731 15.8642 13.4727 15.8642 13.8718V17.0367C15.8642 17.1338 15.943 17.2125 16.04 17.2125H17.7983C17.8954 17.2125 17.9742 17.1338 17.9742 17.0367V13.5177C17.9541 12.0727 17.2744 11.5379 16.7071 11.3438Z" fill="white"/>
</svg>
