<svg width="20" height="34" viewBox="0 0 20 34" fill="none" xmlns="http://www.w3.org/2000/svg">
<path d="M13.3333 15.3333H11.6667V8.66659H15C15.442 8.66659 15.8659 8.84218 16.1785 9.15474C16.4911 9.4673 16.6667 9.89122 16.6667 10.3333C16.6667 10.7753 16.8423 11.1992 17.1548 11.5118C17.4674 11.8243 17.8913 11.9999 18.3333 11.9999C18.7754 11.9999 19.1993 11.8243 19.5118 11.5118C19.8244 11.1992 20 10.7753 20 10.3333C20 9.00717 19.4732 7.7354 18.5355 6.79772C17.5979 5.86004 16.3261 5.33325 15 5.33325H11.6667V1.99992C11.6667 1.55789 11.4911 1.13397 11.1785 0.821407C10.866 0.508847 10.442 0.333252 10 0.333252C9.55797 0.333252 9.13405 0.508847 8.82149 0.821407C8.50893 1.13397 8.33333 1.55789 8.33333 1.99992V5.33325H6.66667C4.89856 5.33325 3.20286 6.03563 1.95262 7.28587C0.702379 8.53612 0 10.2318 0 11.9999C0 13.768 0.702379 15.4637 1.95262 16.714C3.20286 17.9642 4.89856 18.6666 6.66667 18.6666H8.33333V25.3333H5C4.55797 25.3333 4.13405 25.1577 3.82149 24.8451C3.50893 24.5325 3.33333 24.1086 3.33333 23.6666C3.33333 23.2246 3.15774 22.8006 2.84518 22.4881C2.53262 22.1755 2.10869 21.9999 1.66667 21.9999C1.22464 21.9999 0.800716 22.1755 0.488156 22.4881C0.175595 22.8006 0 23.2246 0 23.6666C0 24.9927 0.526784 26.2644 1.46447 27.2021C2.40215 28.1398 3.67392 28.6666 5 28.6666H8.33333V31.9999C8.33333 32.4419 8.50893 32.8659 8.82149 33.1784C9.13405 33.491 9.55797 33.6666 10 33.6666C10.442 33.6666 10.866 33.491 11.1785 33.1784C11.4911 32.8659 11.6667 32.4419 11.6667 31.9999V28.6666H13.3333C15.1014 28.6666 16.7971 27.9642 18.0474 26.714C19.2976 25.4637 20 23.768 20 21.9999C20 20.2318 19.2976 18.5361 18.0474 17.2859C16.7971 16.0356 15.1014 15.3333 13.3333 15.3333V15.3333ZM8.33333 15.3333H6.66667C5.78261 15.3333 4.93477 14.9821 4.30964 14.3569C3.68452 13.7318 3.33333 12.884 3.33333 11.9999C3.33333 11.1159 3.68452 10.268 4.30964 9.6429C4.93477 9.01777 5.78261 8.66659 6.66667 8.66659H8.33333V15.3333ZM13.3333 25.3333H11.6667V18.6666H13.3333C14.2174 18.6666 15.0652 19.0178 15.6904 19.6429C16.3155 20.268 16.6667 21.1159 16.6667 21.9999C16.6667 22.884 16.3155 23.7318 15.6904 24.3569C15.0652 24.9821 14.2174 25.3333 13.3333 25.3333Z" fill="#385499"/>
</svg>
