<svg width="27" height="27" viewBox="0 0 27 27" fill="none" xmlns="http://www.w3.org/2000/svg">
<path fill-rule="evenodd" clip-rule="evenodd" d="M13.5558 25.8889C20.4286 25.8889 26.0002 20.3173 26.0002 13.4444C26.0002 6.57157 20.4286 1 13.5558 1C6.6829 1 1.11133 6.57157 1.11133 13.4444C1.11133 20.3173 6.6829 25.8889 13.5558 25.8889Z" stroke="white"/>
<path d="M17.6235 11.1435C17.5658 11.0782 17.4727 11.0618 17.3963 11.102C17.3488 11.1271 17.2595 11.1599 17.1535 11.1923C17.2872 11.0094 17.3948 10.8046 17.4423 10.6205C17.4628 10.5412 17.4328 10.4576 17.3674 10.4103C17.3021 10.3634 17.215 10.3634 17.1497 10.4103C17.0467 10.4841 16.5497 10.7061 16.2355 10.778C15.5253 10.1382 14.6988 10.0718 13.8397 10.5877C13.1413 11.0071 12.9893 11.8599 13.019 12.3797C11.4204 12.2214 10.4268 11.353 9.86745 10.6342C9.82831 10.5838 9.76524 10.5572 9.70596 10.5611C9.64364 10.5658 9.58741 10.6014 9.55549 10.6565C9.29103 11.1157 9.21769 11.6234 9.34422 12.1248C9.41338 12.3984 9.53421 12.6396 9.67442 12.835C9.60717 12.801 9.54219 12.7584 9.48102 12.7076C9.42478 12.6599 9.34612 12.6509 9.27963 12.6826C9.21351 12.715 9.17133 12.7838 9.17133 12.8592C9.17133 13.7202 9.69494 14.2947 10.184 14.5949C10.1049 14.5851 10.0225 14.5672 9.93927 14.541C9.86783 14.5187 9.79032 14.541 9.74092 14.5988C9.69152 14.6563 9.67974 14.7383 9.71052 14.8083C9.98524 15.4332 10.5058 15.8632 11.1499 16.0191C10.5875 16.3587 9.83477 16.5252 9.1455 16.4435C9.0562 16.4306 8.97109 16.4889 8.94297 16.5772C8.91485 16.6655 8.95171 16.7625 9.03036 16.8078C10.0761 17.4116 11.0214 17.6274 11.8384 17.6274C13.0273 17.6274 13.945 17.1709 14.5035 16.789C16.0094 15.7612 16.9479 13.9156 16.8172 12.2644C17.0585 12.0811 17.4195 11.7426 17.6433 11.3787C17.6896 11.3053 17.6813 11.2083 17.6235 11.1435Z" fill="white"/>
</svg>
