<svg width="34" height="32" viewBox="0 0 34 32" fill="none" xmlns="http://www.w3.org/2000/svg">
<path d="M28.6666 6.83317H23.6666V5.1665C23.6666 3.84042 23.1398 2.56865 22.2021 1.63097C21.2644 0.693288 19.9927 0.166504 18.6666 0.166504H15.3333C14.0072 0.166504 12.7354 0.693288 11.7977 1.63097C10.86 2.56865 10.3333 3.84042 10.3333 5.1665V6.83317H5.33325C4.00717 6.83317 2.7354 7.35995 1.79772 8.29764C0.860036 9.23532 0.333252 10.5071 0.333252 11.8332V26.8332C0.333252 28.1593 0.860036 29.431 1.79772 30.3687C2.7354 31.3064 4.00717 31.8332 5.33325 31.8332H28.6666C29.9927 31.8332 31.2644 31.3064 32.2021 30.3687C33.1398 29.431 33.6666 28.1593 33.6666 26.8332V11.8332C33.6666 10.5071 33.1398 9.23532 32.2021 8.29764C31.2644 7.35995 29.9927 6.83317 28.6666 6.83317ZM13.6666 5.1665C13.6666 4.72448 13.8422 4.30055 14.1547 3.98799C14.4673 3.67543 14.8912 3.49984 15.3333 3.49984H18.6666C19.1086 3.49984 19.5325 3.67543 19.8451 3.98799C20.1577 4.30055 20.3333 4.72448 20.3333 5.1665V6.83317H13.6666V5.1665ZM30.3333 26.8332C30.3333 27.2752 30.1577 27.6991 29.8451 28.0117C29.5325 28.3242 29.1086 28.4998 28.6666 28.4998H5.33325C4.89122 28.4998 4.4673 28.3242 4.15474 28.0117C3.84218 27.6991 3.66659 27.2752 3.66659 26.8332V17.6665C7.91035 19.3501 12.4344 20.2153 16.9999 20.2165C21.5653 20.2137 26.089 19.3485 30.3333 17.6665V26.8332ZM30.3333 14.0165C26.1306 15.8628 21.5903 16.8161 16.9999 16.8161C12.4096 16.8161 7.86926 15.8628 3.66659 14.0165V11.8332C3.66659 11.3911 3.84218 10.9672 4.15474 10.6547C4.4673 10.3421 4.89122 10.1665 5.33325 10.1665H28.6666C29.1086 10.1665 29.5325 10.3421 29.8451 10.6547C30.1577 10.9672 30.3333 11.3911 30.3333 11.8332V14.0165Z" fill="#385499"/>
</svg>
