<svg width="34" height="34" viewBox="0 0 34 34" fill="none" xmlns="http://www.w3.org/2000/svg">
<path d="M16.9999 6.99992C16.781 6.99986 16.5643 7.04293 16.3621 7.12667C16.1598 7.21041 15.9761 7.33317 15.8213 7.48795C15.6665 7.64272 15.5437 7.82648 15.46 8.02871C15.3763 8.23095 15.3332 8.4477 15.3333 8.66659V14.1126L13.5038 13.0562C13.121 12.8355 12.6661 12.7758 12.2392 12.8904C11.8124 13.0049 11.4485 13.2843 11.2275 13.667C11.0066 14.0498 10.9467 14.5046 11.061 14.9315C11.1753 15.3584 11.4545 15.7225 11.8372 15.9436L16.1666 18.4436C16.42 18.5899 16.7074 18.6669 17 18.6669C17.2926 18.6669 17.58 18.5898 17.8334 18.4435C18.0868 18.2972 18.2972 18.0868 18.4434 17.8334C18.5897 17.58 18.6666 17.2925 18.6666 16.9999V8.66659C18.6666 8.4477 18.6236 8.23095 18.5398 8.02871C18.4561 7.82648 18.3333 7.64272 18.1786 7.48795C18.0238 7.33317 17.84 7.21041 17.6378 7.12667C17.4356 7.04293 17.2188 6.99986 16.9999 6.99992V6.99992ZM16.9999 0.333252C13.7036 0.333252 10.4812 1.31073 7.74042 3.14209C4.9996 4.97345 2.86339 7.57643 1.60193 10.6219C0.340473 13.6673 0.0104178 17.0184 0.653505 20.2514C1.29659 23.4844 2.88394 26.4542 5.21481 28.785C7.54569 31.1159 10.5154 32.7033 13.7484 33.3463C16.9814 33.9894 20.3325 33.6594 23.378 32.3979C26.4234 31.1365 29.0264 29.0002 30.8577 26.2594C32.6891 23.5186 33.6666 20.2963 33.6666 16.9999C33.6615 12.5812 31.904 8.3449 28.7795 5.22039C25.6549 2.09588 21.4186 0.338307 16.9999 0.333252V0.333252ZM16.9999 30.3333C14.3628 30.3333 11.785 29.5513 9.59232 28.0862C7.39967 26.6211 5.6907 24.5387 4.68153 22.1024C3.67236 19.666 3.40832 16.9851 3.92279 14.3987C4.43726 11.8123 5.70714 9.43653 7.57184 7.57183C9.43654 5.70713 11.8123 4.43725 14.3987 3.92278C16.9851 3.40831 19.666 3.67236 22.1024 4.68153C24.5387 5.69069 26.6211 7.39966 28.0862 9.59232C29.5513 11.785 30.3333 14.3628 30.3333 16.9999C30.3292 20.5349 28.9232 23.9239 26.4235 26.4235C23.9239 28.9232 20.5349 30.3292 16.9999 30.3333V30.3333Z" fill="#385499"/>
</svg>
