<svg width="30" height="34" viewBox="0 0 30 34" fill="none" xmlns="http://www.w3.org/2000/svg">
<path d="M19.3 15.5C20.0575 14.5532 20.4743 13.3791 20.4833 12.1667C20.4833 10.7124 19.9056 9.31769 18.8773 8.28936C17.849 7.26104 16.4543 6.68333 15 6.68333C13.5457 6.68333 12.151 7.26104 11.1227 8.28936C10.0944 9.31769 9.51667 10.7124 9.51667 12.1667C9.5257 13.3791 9.94252 14.5532 10.7 15.5C9.21438 16.4041 8.04883 17.7503 7.36667 19.35C7.27119 19.553 7.21767 19.7731 7.2093 19.9973C7.20093 20.2214 7.2379 20.4449 7.31798 20.6545C7.39806 20.864 7.51961 21.0552 7.67535 21.2166C7.83109 21.378 8.0178 21.5064 8.22432 21.5939C8.43083 21.6815 8.65289 21.7264 8.8772 21.7261C9.1015 21.7258 9.32343 21.6802 9.52969 21.592C9.73596 21.5039 9.92231 21.375 10.0776 21.2132C10.2329 21.0513 10.3539 20.8598 10.4333 20.65C10.8164 19.7546 11.4526 18.9905 12.2639 18.4517C13.0751 17.9128 14.0261 17.6226 15 17.6167C15.9767 17.6193 16.9313 17.908 17.7458 18.4471C18.5604 18.9862 19.1992 19.752 19.5833 20.65C19.7109 20.9512 19.9243 21.2083 20.197 21.3891C20.4697 21.5699 20.7895 21.6664 21.1167 21.6667C21.3397 21.6625 21.56 21.6173 21.7667 21.5333C22.1731 21.3607 22.4944 21.0338 22.66 20.6244C22.8257 20.2151 22.822 19.7567 22.65 19.35C21.9634 17.7479 20.7918 16.4014 19.3 15.5ZM15 14.2833C14.5741 14.2833 14.1577 14.1568 13.8038 13.9198C13.4499 13.6828 13.1743 13.346 13.0121 12.9522C12.8499 12.5584 12.8083 12.1252 12.8926 11.7077C12.9769 11.2902 13.1834 10.9072 13.4857 10.6072C13.7881 10.3071 14.1727 10.1037 14.5909 10.0226C15.009 9.94157 15.4418 9.98653 15.8344 10.1518C16.2269 10.3171 16.5616 10.5953 16.7958 10.951C17.03 11.3068 17.1533 11.7241 17.15 12.15C17.1456 12.7173 16.9171 13.2599 16.5144 13.6595C16.1117 14.0591 15.5673 14.2834 15 14.2833ZM25 0H5C3.67392 0 2.40215 0.526784 1.46447 1.46447C0.526784 2.40215 0 3.67392 0 5V23.3333C0 24.6594 0.526784 25.9312 1.46447 26.8689C2.40215 27.8066 3.67392 28.3333 5 28.3333H9.31667L13.8167 32.85C13.9724 33.0045 14.1571 33.1267 14.3602 33.2096C14.5632 33.2926 14.7807 33.3346 15 33.3333C15.3972 33.3334 15.7814 33.1915 16.0833 32.9333L21.45 28.3333H25C26.3261 28.3333 27.5979 27.8066 28.5355 26.8689C29.4732 25.9312 30 24.6594 30 23.3333V5C30 3.67392 29.4732 2.40215 28.5355 1.46447C27.5979 0.526784 26.3261 0 25 0ZM26.6667 23.3333C26.6667 23.7754 26.4911 24.1993 26.1785 24.5118C25.866 24.8244 25.442 25 25 25H20.8333C20.4361 25 20.0519 25.1418 19.75 25.4L15.0833 29.4L11.1833 25.4833C11.0276 25.3289 10.8429 25.2067 10.6398 25.1237C10.4368 25.0408 10.2193 24.9987 10 25H5C4.55797 25 4.13405 24.8244 3.82149 24.5118C3.50893 24.1993 3.33333 23.7754 3.33333 23.3333V5C3.33333 4.55797 3.50893 4.13405 3.82149 3.82149C4.13405 3.50893 4.55797 3.33333 5 3.33333H25C25.442 3.33333 25.866 3.50893 26.1785 3.82149C26.4911 4.13405 26.6667 4.55797 26.6667 5V23.3333Z" fill="#385499"/>
</svg>
